# xmcd
#
# Track frame offsets: 
#        150
#        13542
#        24570
#        36762
#        49857
#        79255
#        96572
#        112545
#        131717
#        146597
#        157262
#
# Disc length: 2272 seconds
#
# Revision: 2
# Processed by: cddbd v1.5.2PL0 Copyright (c) Steve Scherf et al.
# Submitted via: ExactAudioCopy v0.99pb3
#
DISCID=8f08de0b
DTITLE=Reverend Gary Davis - The Guitar And Banjo Of Reverend Gary Dav
DTITLE=is
DYEAR=1964
DGENRE=Blues
TTITLE0=Maple Leaf Rag
TTITLE1=Low Drag aka Cincinnati Flow Rag
TTITLE2=The Boy Was Kissing The Girl (And Playing The Guitar At The Sa
TTITLE2=me Time)
TTITLE3=Candy Man
TTITLE4=United States March aka Soldier's Drill
TTITLE5=Devil's Dream
TTITLE6=The Coon Hunt
TTITLE7=Mister Jim aka Walkin' Dog Blues
TTITLE8=Please Baby
TTITLE9=Fast Fox Trot aka Buck Rag
TTITLE10=Can't Be Satisfied
EXTD=
EXTT0=
EXTT1=
EXTT2=
EXTT3=
EXTT4=
EXTT5=
EXTT6=
EXTT7=
EXTT8=
EXTT9=
EXTT10=
PLAYORDER=
